<?xml version="1.0" encoding="UTF-8"?>
<svg xmlns="http://www.w3.org/2000/svg" viewBox="0 0 147.15 146.73" fill="currentColor" aria-hidden="true">
  <g>
    <path d="M36.3,136.33c-7.64-4.45-14.33-10.2-19.94-17.1C5.81,106.26,0,89.89,0,73.13c0-5.44.6-10.87,1.79-16.14,1.47-6.56,3.85-12.87,7.06-18.76,4.73-8.71,11.08-16.26,18.88-22.44C40.76,5.46,56.46,0,73.14,0c11.09,0,22.03,2.52,31.93,7.32l-8.22,8.28c-7.51-3.11-15.48-4.68-23.71-4.68-13.38,0-26.13,4.18-36.87,12.1-5.53,4.07-10.33,9-14.24,14.64-2.44,3.5-4.52,7.27-6.18,11.19-3.23,7.59-4.88,15.66-4.92,23.96,0,.1,0,.21,0,.31,0,9.32,2.01,18.28,5.97,26.63,1.83,3.86,4.06,7.53,6.63,10.92,4.05,5.35,8.91,9.99,14.44,13.78,2.03,1.39,4.14,2.67,6.33,3.81l-8,8.06Z"/>
    <path d="M73.79,146.73c-4.09,0-8.15-.34-12.15-1l9.93-9.93c.73.03,1.47.04,2.22.04,34.44,0,62.47-28.02,62.47-62.47,0-1.39-.04-2.69-.13-3.97-.44-7.18-2.11-14.18-4.97-20.79-3.08-7.15-7.57-13.75-13.07-19.29l7.7-7.7c4.89,4.9,9.04,10.45,12.37,16.51,2.84,5.18,5.05,10.71,6.57,16.46,1.61,6.09,2.43,12.41,2.43,18.78,0,40.45-32.91,73.36-73.36,73.36Z"/>
    <path d="M103.2,70.2l-6.1-1.1c-.4-1.5-.9-2.9-1.6-4.3l3.6-5c1-1.4.8-3.3-.4-4.5l-5.4-5.4c-1.2-1.2-3.1-1.4-4.5-.4l-5,3.6c-1.4-.7-2.8-1.2-4.3-1.6l-1.1-6.1c-.3-1.7-1.8-2.9-3.5-2.9H68.2c-1.7,0-3.2,1.2-3.5,2.9l-1.1,6.1c-1.5.4-2.9.9-4.3,1.6l-5-3.6c-1.4-1-3.3-.8-4.5.4l-5.4,5.4c-1.2,1.2-1.4,3.1-.4,4.5l3.6,5c-.7,1.4-1.2,2.8-1.6,4.3l-6.1,1.1c-1.7.3-2.9,1.8-2.9,3.5v7.6c0,1.7,1.2,3.2,2.9,3.5l6.1,1.1c.4,1.5.9,2.9,1.6,4.3l-3.6,5c-1,1.4-.8,3.3.4,4.5l5.4,5.4c1.2,1.2,3.1,1.4,4.5.4l5-3.6c1.4.7,2.8,1.2,4.3,1.6l1.1,6.1c.3,1.7,1.8,2.9,3.5,2.9h7.6c1.7,0,3.2-1.2,3.5-2.9l1.1-6.1c1.5-.4,2.9-.9,4.3-1.6l5,3.6c1.4,1,3.3.8,4.5-.4l5.4-5.4c1.2-1.2,1.4-3.1.4-4.5l-3.6-5c.7-1.4,1.2-2.8,1.6-4.3l6.1-1.1c1.7-.3,2.9-1.8,2.9-3.5v-7.6c0-1.7-1.2-3.2-2.9-3.5ZM73.6,90.2c-9.2,0-16.6-7.4-16.6-16.6s7.4-16.6,16.6-16.6,16.6,7.4,16.6,16.6-7.4,16.6-16.6,16.6Z"/>
  </g>
</svg>
