<?xml version="1.0" encoding="UTF-8"?>
<svg xmlns="http://www.w3.org/2000/svg" viewBox="0 0 147.15 146.73" fill="currentColor" aria-hidden="true">
  <g>
    <path d="M36.3,136.33c-7.64-4.45-14.33-10.2-19.94-17.1C5.81,106.26,0,89.89,0,73.13c0-5.44.6-10.87,1.79-16.14,1.47-6.56,3.85-12.87,7.06-18.76,4.73-8.71,11.08-16.26,18.88-22.44C40.76,5.46,56.46,0,73.14,0c11.09,0,22.03,2.52,31.93,7.32l-8.22,8.28c-7.51-3.11-15.48-4.68-23.71-4.68-13.38,0-26.13,4.18-36.87,12.1-5.53,4.07-10.33,9-14.24,14.64-2.44,3.5-4.52,7.27-6.18,11.19-3.23,7.59-4.88,15.66-4.92,23.96,0,.1,0,.21,0,.31,0,9.32,2.01,18.28,5.97,26.63,1.83,3.86,4.06,7.53,6.63,10.92,4.05,5.35,8.91,9.99,14.44,13.78,2.03,1.39,4.14,2.67,6.33,3.81l-8,8.06Z"/>
    <path d="M73.79,146.73c-4.09,0-8.15-.34-12.15-1l9.93-9.93c.73.03,1.47.04,2.22.04,34.44,0,62.47-28.02,62.47-62.47,0-1.39-.04-2.69-.13-3.97-.44-7.18-2.11-14.18-4.97-20.79-3.08-7.15-7.57-13.75-13.07-19.29l7.7-7.7c4.89,4.9,9.04,10.45,12.37,16.51,2.84,5.18,5.05,10.71,6.57,16.46,1.61,6.09,2.43,12.41,2.43,18.78,0,40.45-32.91,73.36-73.36,73.36Z"/>
    <path d="M55.2,58.4h12.8v41.2H55.2V58.4Zm6.4-20.5c4.1,0,7.4,3.3,7.4,7.4s-3.3,7.4-7.4,7.4-7.4-3.3-7.4-7.4,3.3-7.4,7.4-7.4Zm14.9,20.5h12.3v5.6h.2c1.7-3.2,5.9-6.6,12.2-6.6,13,0,15.4,8.6,15.4,19.7v22.5H103.7V80.2c0-4.6-.1-10.6-6.4-10.6-6.5,0-7.5,5-7.5,10.2v19.8H68.5V58.4h12.8Z"/>
  </g>
</svg>
